<svg width="198" height="60" viewBox="0 0 198 60" fill="none" xmlns="http://www.w3.org/2000/svg">
<path d="M47.518 26.6701C37.9952 21.0086 22.2874 20.4881 13.1967 23.2502C11.7368 23.6934 10.1931 22.8684 9.75076 21.407C9.30841 19.9449 10.1317 18.4005 11.5925 17.9562C22.0281 14.7847 39.3756 15.3975 50.3385 21.9124C51.6519 22.6925 52.0826 24.3902 51.304 25.7029C50.5251 27.0172 48.8279 27.4505 47.518 26.6701ZM47.2062 35.0558C46.5384 36.1413 45.1209 36.4813 44.0382 35.8153C36.099 30.9297 23.9926 29.5144 14.5999 32.3686C13.3819 32.7371 12.0954 32.0496 11.7255 30.8324C11.3584 29.613 12.0455 28.3274 13.2613 27.9566C23.9912 24.6971 37.3298 26.2759 46.4484 31.8859C47.5311 32.5533 47.8719 33.9732 47.2062 35.0558ZM43.5913 43.1092C43.0607 43.9805 41.9269 44.2538 41.0597 43.7227C34.1222 39.478 25.3902 38.5191 15.1068 40.8708C14.1157 41.0983 13.1282 40.4764 12.902 39.4846C12.6751 38.4926 13.2937 37.5041 14.287 37.2778C25.5404 34.7022 35.1938 35.8107 42.9806 40.5742C43.8488 41.1049 44.1222 42.2405 43.5913 43.1092ZM30.0428 0.450993C13.7271 0.450993 0.5 13.692 0.5 30.0259C0.5 46.3612 13.7271 59.6019 30.0428 59.6019C46.3592 59.6019 59.5855 46.3612 59.5855 30.0259C59.5855 13.692 46.3592 0.450993 30.0428 0.450993Z" fill="#1ED760"/>
<path d="M80.8755 27.7542C75.7747 26.5364 74.8663 25.6817 74.8663 23.8863C74.8663 22.1893 76.4623 21.0478 78.835 21.0478C81.1352 21.0478 83.4155 21.9149 85.807 23.6998C85.8793 23.7538 85.97 23.7754 86.0592 23.7612C86.1485 23.7478 86.2271 23.6991 86.2797 23.6249L88.7703 20.1102C88.8726 19.9657 88.8447 19.7658 88.7068 19.6553C85.861 17.3692 82.6563 16.2578 78.9105 16.2578C73.403 16.2578 69.5559 19.5663 69.5559 24.3009C69.5559 29.3778 72.8745 31.1753 78.6093 32.5628C83.4903 33.6884 84.314 34.6312 84.314 36.3172C84.314 38.185 82.6482 39.3463 79.9675 39.3463C76.9904 39.3463 74.5615 38.3423 71.8448 35.9869C71.7774 35.929 71.685 35.9022 71.5996 35.9071C71.51 35.9145 71.4278 35.9561 71.3706 36.025L68.5781 39.3522C68.4609 39.4903 68.4757 39.6966 68.6109 39.8159C71.7721 42.641 75.6593 44.1334 79.8546 44.1334C85.7893 44.1334 89.6244 40.8867 89.6244 35.8622C89.6244 31.6158 87.09 29.2673 80.8755 27.7542Z" fill="#1ED760"/>
<path d="M107.36 33.4455C107.36 37.0313 105.154 39.5334 101.994 39.5334C98.8713 39.5334 96.5154 36.9176 96.5154 33.4455C96.5154 29.9739 98.8713 27.3577 101.994 27.3577C105.103 27.3577 107.36 29.9174 107.36 33.4455ZM103.052 22.718C100.479 22.718 98.3693 23.7323 96.6294 25.8107V23.4713C96.6294 23.2866 96.4798 23.1361 96.2953 23.1361H91.7283C91.5438 23.1361 91.3945 23.2866 91.3945 23.4713V49.4653C91.3945 49.65 91.5438 49.8004 91.7283 49.8004H96.2953C96.4798 49.8004 96.6294 49.65 96.6294 49.4653V41.2605C98.3696 43.2156 100.48 44.1705 103.052 44.1705C107.831 44.1705 112.67 40.4869 112.67 33.4455C112.67 26.4025 107.831 22.718 103.052 22.718Z" fill="#1ED760"/>
<path d="M125.073 39.5709C121.799 39.5709 119.33 36.9373 119.33 33.4455C119.33 29.939 121.713 27.3944 124.997 27.3944C128.293 27.3944 130.778 30.0279 130.778 33.522C130.778 37.0281 128.378 39.5709 125.073 39.5709ZM125.073 22.718C118.917 22.718 114.095 27.4633 114.095 33.522C114.095 39.515 118.884 44.2105 124.997 44.2105C131.175 44.2105 136.012 39.4812 136.012 33.4455C136.012 27.43 131.208 22.718 125.073 22.718Z" fill="#1ED760"/>
<path d="M149.157 23.1361H144.131V17.9919C144.131 17.8071 143.982 17.6571 143.798 17.6571H139.231C139.046 17.6571 138.896 17.8071 138.896 17.9919V23.1361H136.7C136.516 23.1361 136.367 23.2866 136.367 23.4713V27.4009C136.367 27.5855 136.516 27.7358 136.7 27.7358H138.896V37.9042C138.896 42.0134 140.939 44.0967 144.968 44.0967C146.606 44.0967 147.965 43.758 149.246 43.0308C149.35 42.9726 149.415 42.8603 149.415 42.7409V38.9988C149.415 38.8832 149.355 38.7745 149.257 38.7137C149.157 38.6513 149.033 38.6481 148.931 38.6986C148.052 39.1417 147.201 39.3463 146.25 39.3463C144.785 39.3463 144.131 38.6805 144.131 37.1877V27.7358H149.157C149.342 27.7358 149.49 27.5855 149.49 27.4009V23.4713C149.49 23.2866 149.342 23.1361 149.157 23.1361Z" fill="#1ED760"/>
<path d="M166.668 23.1563V22.5244C166.668 20.6657 167.38 19.8368 168.977 19.8368C169.929 19.8368 170.694 20.0261 171.55 20.3122C171.656 20.3454 171.766 20.3288 171.852 20.2656C171.94 20.2024 171.99 20.101 171.99 19.9936V16.1406C171.99 15.9933 171.895 15.863 171.754 15.8199C170.849 15.5504 169.691 15.2735 167.957 15.2735C163.738 15.2735 161.509 17.6518 161.509 22.1487V23.1164H159.315C159.13 23.1164 158.979 23.2665 158.979 23.4512V27.4009C158.979 27.5855 159.13 27.7358 159.315 27.7358H161.509V43.42C161.509 43.6048 161.658 43.7549 161.842 43.7549H166.409C166.593 43.7549 166.744 43.6048 166.744 43.42V27.7358H171.008L177.541 43.4159C176.799 45.0634 176.07 45.3912 175.074 45.3912C174.27 45.3912 173.422 45.1506 172.556 44.676C172.474 44.631 172.378 44.6237 172.29 44.6509C172.203 44.6819 172.129 44.7466 172.092 44.8317L170.544 48.2317C170.471 48.3923 170.533 48.581 170.688 48.6643C172.304 49.5405 173.763 49.9145 175.566 49.9145C178.938 49.9145 180.802 48.3415 182.446 44.1105L190.37 23.6126C190.409 23.5094 190.397 23.3932 190.334 23.3014C190.272 23.211 190.17 23.1563 190.06 23.1563H185.305C185.163 23.1563 185.035 23.2467 184.988 23.3805L180.118 37.3088L174.782 23.3713C174.734 23.2417 174.609 23.1563 174.471 23.1563H166.668Z" fill="#1ED760"/>
<path d="M156.517 23.1361H151.949C151.765 23.1361 151.615 23.2866 151.615 23.4713V43.42C151.615 43.6048 151.765 43.7549 151.949 43.7549H156.517C156.701 43.7549 156.851 43.6048 156.851 43.42V23.4713C156.851 23.2866 156.701 23.1361 156.517 23.1361Z" fill="#1ED760"/>
<path d="M154.256 14.053C152.447 14.053 150.979 15.5197 150.979 17.3307C150.979 19.1432 152.447 20.6113 154.256 20.6113C156.065 20.6113 157.532 19.1432 157.532 17.3307C157.532 15.5197 156.065 14.053 154.256 14.053Z" fill="#1ED760"/>
<path d="M194.456 25.1205H193.619V26.1888H194.456C194.874 26.1888 195.123 25.9842 195.123 25.6544C195.123 25.3068 194.874 25.1205 194.456 25.1205ZM194.998 26.6445L195.907 27.9189H195.141L194.322 26.75H193.619V27.9189H192.977V24.541H194.482C195.265 24.541 195.781 24.9426 195.781 25.6185C195.781 26.1721 195.462 26.5105 194.998 26.6445ZM194.286 23.4172C192.639 23.4172 191.393 24.7271 191.393 26.3318C191.393 27.9355 192.631 29.2281 194.269 29.2281C195.915 29.2281 197.162 27.9189 197.162 26.3135C197.162 24.7098 195.924 23.4172 194.286 23.4172ZM194.269 29.55C192.461 29.55 191.055 28.0966 191.055 26.3318C191.055 24.5668 192.48 23.0969 194.286 23.0969C196.093 23.0969 197.5 24.5502 197.5 26.3135C197.5 28.0785 196.076 29.55 194.269 29.55Z" fill="#1ED760"/>
</svg>
